<svg xmlns="http://www.w3.org/2000/svg" width="66" height="64" viewBox="0 0 66 64" fill="none">
  <path d="M65.0985 0.557167L63.5879 11.5841C59.6605 11.282 56.7905 12.0877 54.9778 14.001C53.1652 15.9144 52.0575 18.4823 51.6546 21.7048C51.2518 24.9273 51.1511 28.4015 51.3525 32.1275H65.0985V64H39.2682V26.0854C39.2682 16.8207 41.5844 9.87219 46.2167 5.23985C50.9497 0.607521 57.2437 -0.953375 65.0985 0.557167ZM26.7307 0.557167L25.2201 11.5841C21.2927 11.282 18.4227 12.0877 16.61 14.001C14.7974 15.9144 13.6897 18.4823 13.2868 21.7048C12.884 24.9273 12.7833 28.4015 12.9847 32.1275H26.7307V64H0.900391V26.0854C0.900391 16.8207 3.21656 9.87219 7.84889 5.23985C12.5819 0.607521 18.8759 -0.953375 26.7307 0.557167Z" fill="currentcolor"/>
</svg>