<!-- <svg fill="none" class="icon icon-search" viewBox="0 0 18 19"><path fill="currentColor" fill-rule="evenodd" d="M11.03 11.68A5.784 5.784 0 1 1 2.85 3.5a5.784 5.784 0 0 1 8.18 8.18m.26 1.12a6.78 6.78 0 1 1 .72-.7l5.4 5.4a.5.5 0 1 1-.71.7z" clip-rule="evenodd"/></svg> -->

<svg class="icon icon-search"  xmlns="http://www.w3.org/2000/svg" width="24" height="24" viewBox="0 0 24 24" fill="none">
<path d="M21.0002 21L16.6602 16.66" stroke="#11120D" stroke-linecap="round" stroke-linejoin="round"/>
<path d="M11 19C15.4183 19 19 15.4183 19 11C19 6.58172 15.4183 3 11 3C6.58172 3 3 6.58172 3 11C3 15.4183 6.58172 19 11 19Z" stroke="#11120D" stroke-linecap="round" stroke-linejoin="round"/>
</svg>